<svg width="440" height="300" viewBox="0 0 440 300" fill="none" xmlns="http://www.w3.org/2000/svg">
<g filter="url(#filter0_ddd_1127_377)">
<rect x="23.9904" y="8" width="391.475" height="251.888" rx="26" fill="url(#paint0_linear_1127_377)"/>
<mask id="mask0_1127_377" style="mask-type:alpha" maskUnits="userSpaceOnUse" x="23" y="8" width="393" height="252">
<rect x="23.9904" y="8" width="391.475" height="251.888" rx="26" fill="url(#paint1_linear_1127_377)"/>
</mask>
<g mask="url(#mask0_1127_377)">
<path d="M49.7722 203.891C49.7722 203.403 49.8846 202.965 50.1095 202.578C50.3392 202.19 50.6479 201.889 51.0355 201.673C51.4278 201.453 51.8561 201.343 52.3203 201.343C52.8514 201.343 53.3228 201.475 53.7343 201.738C54.1506 201.996 54.4521 202.365 54.6387 202.843H53.6553C53.5261 202.58 53.3467 202.384 53.117 202.255C52.8873 202.126 52.6217 202.061 52.3203 202.061C51.9901 202.061 51.6958 202.135 51.4374 202.284C51.179 202.432 50.9756 202.645 50.8273 202.922C50.6837 203.2 50.612 203.523 50.612 203.891C50.612 204.26 50.6837 204.583 50.8273 204.86C50.9756 205.138 51.179 205.353 51.4374 205.506C51.6958 205.655 51.9901 205.729 52.3203 205.729C52.6217 205.729 52.8873 205.664 53.117 205.535C53.3467 205.406 53.5261 205.21 53.6553 204.946H54.6387C54.4521 205.425 54.1506 205.793 53.7343 206.052C53.3228 206.31 52.8514 206.439 52.3203 206.439C51.8513 206.439 51.4231 206.332 51.0355 206.116C50.6479 205.896 50.3392 205.592 50.1095 205.205C49.8846 204.817 49.7722 204.379 49.7722 203.891ZM55.3237 204.401C55.3237 204.004 55.4051 203.652 55.5678 203.346C55.7352 203.04 55.9601 202.803 56.2425 202.635C56.5296 202.463 56.8454 202.377 57.1899 202.377C57.501 202.377 57.7713 202.439 58.001 202.563C58.2355 202.683 58.4221 202.834 58.5609 203.016V202.441H59.3863V206.396H58.5609V205.808C58.4221 205.994 58.2331 206.15 57.9938 206.274C57.7546 206.399 57.4818 206.461 57.1756 206.461C56.8358 206.461 56.5248 206.375 56.2425 206.203C55.9601 206.026 55.7352 205.781 55.5678 205.47C55.4051 205.155 55.3237 204.798 55.3237 204.401ZM58.5609 204.415C58.5609 204.143 58.5035 203.906 58.3886 203.705C58.2786 203.504 58.1326 203.351 57.9508 203.245C57.7689 203.14 57.5727 203.087 57.3622 203.087C57.1517 203.087 56.9555 203.14 56.7736 203.245C56.5918 203.346 56.4434 203.497 56.3286 203.698C56.2185 203.894 56.1635 204.128 56.1635 204.401C56.1635 204.674 56.2185 204.913 56.3286 205.119C56.4434 205.324 56.5918 205.482 56.7736 205.592C56.9602 205.698 57.1564 205.75 57.3622 205.75C57.5727 205.75 57.7689 205.698 57.9508 205.592C58.1326 205.487 58.2786 205.334 58.3886 205.133C58.5035 204.927 58.5609 204.688 58.5609 204.415ZM61.2793 203.016C61.399 202.815 61.5569 202.659 61.7531 202.549C61.9541 202.434 62.1909 202.377 62.4637 202.377V203.224H62.2555C61.9349 203.224 61.6909 203.305 61.5234 203.468C61.3607 203.631 61.2793 203.913 61.2793 204.315V206.396H60.4611V202.441H61.2793V203.016ZM62.9431 204.401C62.9431 204.004 63.0244 203.652 63.1871 203.346C63.3546 203.04 63.5795 202.803 63.8618 202.635C64.1489 202.463 64.4672 202.377 64.8165 202.377C65.0749 202.377 65.3285 202.434 65.5773 202.549C65.8309 202.659 66.0319 202.807 66.1802 202.994V201.085H67.0057V206.396H66.1802V205.801C66.0463 205.992 65.8596 206.15 65.6204 206.274C65.3859 206.399 65.1155 206.461 64.8093 206.461C64.4648 206.461 64.1489 206.375 63.8618 206.203C63.5795 206.026 63.3546 205.781 63.1871 205.47C63.0244 205.155 62.9431 204.798 62.9431 204.401ZM66.1802 204.415C66.1802 204.143 66.1228 203.906 66.008 203.705C65.8979 203.504 65.752 203.351 65.5701 203.245C65.3883 203.14 65.1921 203.087 64.9816 203.087C64.771 203.087 64.5748 203.14 64.393 203.245C64.2111 203.346 64.0628 203.497 63.948 203.698C63.8379 203.894 63.7829 204.128 63.7829 204.401C63.7829 204.674 63.8379 204.913 63.948 205.119C64.0628 205.324 64.2111 205.482 64.393 205.592C64.5796 205.698 64.7758 205.75 64.9816 205.75C65.1921 205.75 65.3883 205.698 65.5701 205.592C65.752 205.487 65.8979 205.334 66.008 205.133C66.1228 204.927 66.1802 204.688 66.1802 204.415ZM71.9906 202.377C72.2921 202.377 72.5601 202.441 72.7945 202.571C73.0338 202.7 73.2204 202.891 73.3544 203.145C73.4932 203.398 73.5626 203.705 73.5626 204.064V206.396H72.7515V204.186C72.7515 203.832 72.663 203.561 72.4859 203.375C72.3089 203.183 72.0672 203.087 71.761 203.087C71.4547 203.087 71.2107 203.183 71.0288 203.375C70.8518 203.561 70.7632 203.832 70.7632 204.186V206.396H69.945V201.085H70.7632V202.901C70.902 202.733 71.0767 202.604 71.2872 202.513C71.5026 202.422 71.737 202.377 71.9906 202.377ZM76.3218 206.461C75.9486 206.461 75.6112 206.377 75.3097 206.21C75.0083 206.037 74.7714 205.798 74.5991 205.492C74.4269 205.181 74.3407 204.822 74.3407 204.415C74.3407 204.013 74.4293 203.657 74.6063 203.346C74.7834 203.035 75.025 202.796 75.3313 202.628C75.6375 202.461 75.9797 202.377 76.3577 202.377C76.7357 202.377 77.0779 202.461 77.3841 202.628C77.6904 202.796 77.932 203.035 78.1091 203.346C78.2861 203.657 78.3746 204.013 78.3746 204.415C78.3746 204.817 78.2837 205.174 78.1019 205.485C77.92 205.796 77.6712 206.037 77.3554 206.21C77.0444 206.377 76.6998 206.461 76.3218 206.461ZM76.3218 205.75C76.5323 205.75 76.7285 205.7 76.9104 205.6C77.097 205.499 77.2477 205.348 77.3626 205.147C77.4774 204.946 77.5348 204.702 77.5348 204.415C77.5348 204.128 77.4798 203.887 77.3698 203.69C77.2597 203.489 77.1137 203.339 76.9319 203.238C76.7501 203.138 76.5539 203.087 76.3433 203.087C76.1328 203.087 75.9366 203.138 75.7548 203.238C75.5777 203.339 75.4365 203.489 75.3313 203.69C75.226 203.887 75.1734 204.128 75.1734 204.415C75.1734 204.841 75.281 205.171 75.4964 205.406C75.7165 205.636 75.9916 205.75 76.3218 205.75ZM80.0018 201.085V206.396H79.1835V201.085H80.0018ZM80.8034 204.401C80.8034 204.004 80.8847 203.652 81.0474 203.346C81.2149 203.04 81.4398 202.803 81.7221 202.635C82.0092 202.463 82.3274 202.377 82.6768 202.377C82.9352 202.377 83.1888 202.434 83.4376 202.549C83.6912 202.659 83.8922 202.807 84.0405 202.994V201.085H84.866V206.396H84.0405V205.801C83.9065 205.992 83.7199 206.15 83.4807 206.274C83.2462 206.399 82.9758 206.461 82.6696 206.461C82.325 206.461 82.0092 206.375 81.7221 206.203C81.4398 206.026 81.2149 205.781 81.0474 205.47C80.8847 205.155 80.8034 204.798 80.8034 204.401ZM84.0405 204.415C84.0405 204.143 83.9831 203.906 83.8683 203.705C83.7582 203.504 83.6123 203.351 83.4304 203.245C83.2486 203.14 83.0524 203.087 82.8418 203.087C82.6313 203.087 82.4351 203.14 82.2533 203.245C82.0714 203.346 81.9231 203.497 81.8082 203.698C81.6982 203.894 81.6432 204.128 81.6432 204.401C81.6432 204.674 81.6982 204.913 81.8082 205.119C81.9231 205.324 82.0714 205.482 82.2533 205.592C82.4399 205.698 82.6361 205.75 82.8418 205.75C83.0524 205.75 83.2486 205.698 83.4304 205.592C83.6123 205.487 83.7582 205.334 83.8683 205.133C83.9831 204.927 84.0405 204.688 84.0405 204.415ZM89.5655 204.322C89.5655 204.47 89.5559 204.604 89.5368 204.724H86.5149C86.5389 205.04 86.6561 205.293 86.8667 205.485C87.0772 205.676 87.3356 205.772 87.6419 205.772C88.0821 205.772 88.3931 205.588 88.575 205.219H89.4578C89.3382 205.583 89.1205 205.882 88.8047 206.116C88.4936 206.346 88.106 206.461 87.6419 206.461C87.2638 206.461 86.9241 206.377 86.6226 206.21C86.3259 206.037 86.0915 205.798 85.9192 205.492C85.7517 205.181 85.668 204.822 85.668 204.415C85.668 204.009 85.7493 203.652 85.912 203.346C86.0795 203.035 86.3116 202.796 86.6083 202.628C86.9097 202.461 87.2543 202.377 87.6419 202.377C88.0151 202.377 88.3477 202.458 88.6396 202.621C88.9315 202.784 89.1588 203.013 89.3214 203.31C89.4841 203.602 89.5655 203.939 89.5655 204.322ZM88.7113 204.064C88.7066 203.762 88.5989 203.52 88.3883 203.339C88.1778 203.157 87.917 203.066 87.606 203.066C87.3236 203.066 87.082 203.157 86.881 203.339C86.68 203.516 86.5604 203.757 86.5221 204.064H88.7113ZM91.189 203.016C91.3086 202.815 91.4666 202.659 91.6627 202.549C91.8637 202.434 92.1006 202.377 92.3733 202.377V203.224H92.1652C91.8446 203.224 91.6005 203.305 91.4331 203.468C91.2704 203.631 91.189 203.913 91.189 204.315V206.396H90.3707V202.441H91.189V203.016Z" fill="white"/>
<path d="M284.645 227.685C284.645 262.939 256.065 291.519 220.81 291.519C185.556 291.519 156.976 262.939 156.976 227.685C156.976 209.097 164.92 192.365 177.599 180.699C188.968 170.238 204.143 163.85 220.81 163.85C256.065 163.85 284.645 192.43 284.645 227.685Z" fill="white" fill-opacity="0.12"/>
<path d="M284.645 227.685C284.645 262.939 256.065 291.519 220.81 291.519H405.042C369.787 291.519 341.207 262.939 341.207 227.685C341.207 223.181 341.673 218.787 342.56 214.547C339.554 214.981 336.48 215.206 333.354 215.206C302.369 215.206 276.541 193.131 270.738 163.85H229.098H220.81C256.065 163.85 284.645 192.43 284.645 227.685Z" fill="white" fill-opacity="0.12"/>
<path d="M270.738 163.85C269.938 159.814 269.519 155.642 269.519 151.371C269.519 145.763 270.242 140.323 271.601 135.141C266.266 144.71 250.298 163.85 229.098 163.85H270.738Z" fill="white" fill-opacity="0.12"/>
<path fill-rule="evenodd" clip-rule="evenodd" d="M405.042 291.519C440.297 291.519 468.876 262.939 468.876 227.685C468.876 192.43 440.297 163.85 405.042 163.85C401.915 163.85 398.841 164.075 395.835 164.509C390.394 190.518 369.123 210.71 342.56 214.547C341.673 218.787 341.207 223.181 341.207 227.685C341.207 262.939 369.787 291.519 405.042 291.519Z" fill="white" fill-opacity="0.12"/>
<path d="M395.835 164.509C390.394 190.518 369.123 210.71 342.56 214.547C348.002 188.538 369.273 168.346 395.835 164.509Z" fill="white" fill-opacity="0.12"/>
<path d="M397.188 151.371C397.188 116.116 368.608 87.5367 333.354 87.5367C303.707 87.5367 278.781 107.746 271.601 135.141C270.242 140.323 269.519 145.763 269.519 151.371C269.519 155.642 269.938 159.814 270.738 163.85C276.541 193.131 302.369 215.206 333.354 215.206C336.48 215.206 339.554 214.981 342.56 214.547C348.002 188.538 369.273 168.346 395.835 164.509C396.722 160.269 397.188 155.875 397.188 151.371Z" fill="white" fill-opacity="0.12"/>
</g>
<path d="M57.8636 48.8277H53.4757L52.7724 50.9044H49.7746L54.0284 39.1476H57.3444L61.5983 50.9044H58.567L57.8636 48.8277ZM57.1267 46.617L55.6697 42.3129L54.2294 46.617H57.1267ZM68.4196 50.9044L66.6276 48.3085L65.1204 50.9044H62.0221L65.1036 46.1313L61.9383 41.5593H65.1539L66.9458 44.1384L68.4531 41.5593H71.5514L68.4196 46.2653L71.6351 50.9044H68.4196ZM74.1789 40.5879C73.6765 40.5879 73.2634 40.4428 72.9396 40.1525C72.627 39.851 72.4707 39.4826 72.4707 39.0471C72.4707 38.6005 72.627 38.2321 72.9396 37.9418C73.2634 37.6403 73.6765 37.4896 74.1789 37.4896C74.6702 37.4896 75.0721 37.6403 75.3848 37.9418C75.7085 38.2321 75.8704 38.6005 75.8704 39.0471C75.8704 39.4826 75.7085 39.851 75.3848 40.1525C75.0721 40.4428 74.6702 40.5879 74.1789 40.5879ZM75.6025 41.5593V50.9044H72.7386V41.5593H75.6025ZM81.4795 51.0383C80.6645 51.0383 79.9388 50.8988 79.3024 50.6197C78.666 50.3405 78.1635 49.9609 77.7951 49.4808C77.4266 48.9896 77.2201 48.4425 77.1754 47.8396H80.0058C80.0392 48.1634 80.19 48.4257 80.4579 48.6267C80.7259 48.8277 81.0553 48.9282 81.446 48.9282C81.8033 48.9282 82.0769 48.8612 82.2667 48.7272C82.4676 48.582 82.5681 48.3978 82.5681 48.1745C82.5681 47.9066 82.4286 47.7112 82.1494 47.5884C81.8703 47.4544 81.4181 47.3092 80.7929 47.1529C80.123 46.9966 79.5647 46.8347 79.1181 46.6672C78.6715 46.4886 78.2863 46.2151 77.9626 45.8466C77.6388 45.467 77.4769 44.959 77.4769 44.3226C77.4769 43.7867 77.622 43.301 77.9123 42.8656C78.2138 42.419 78.6492 42.0673 79.2186 41.8105C79.7992 41.5537 80.4858 41.4253 81.2786 41.4253C82.4509 41.4253 83.372 41.7156 84.0419 42.2961C84.723 42.8767 85.1137 43.6471 85.2142 44.6073H82.5681C82.5235 44.2835 82.3783 44.0267 82.1327 43.8369C81.8982 43.6471 81.5856 43.5522 81.1948 43.5522C80.8599 43.5522 80.6031 43.6192 80.4244 43.7532C80.2458 43.876 80.1565 44.049 80.1565 44.2723C80.1565 44.5403 80.296 44.7413 80.5752 44.8753C80.8655 45.0092 81.3121 45.1432 81.915 45.2772C82.6072 45.4558 83.171 45.6345 83.6065 45.8131C84.0419 45.9806 84.4215 46.2597 84.7453 46.6505C85.0802 47.0301 85.2533 47.5437 85.2645 48.1913C85.2645 48.7383 85.1082 49.2296 84.7955 49.665C84.4941 50.0893 84.0531 50.4243 83.4725 50.6699C82.9031 50.9155 82.2388 51.0383 81.4795 51.0383ZM97.6833 44.8753C98.3643 45.0204 98.9114 45.3609 99.3245 45.8969C99.7376 46.4216 99.9442 47.0245 99.9442 47.7056C99.9442 48.6881 99.5981 49.4697 98.9058 50.0502C98.2248 50.6197 97.2702 50.9044 96.042 50.9044H90.5656V39.1476H95.8578C97.0524 39.1476 97.9847 39.4212 98.6546 39.9682C99.3357 40.5153 99.6762 41.2578 99.6762 42.1957C99.6762 42.8879 99.492 43.4629 99.1235 43.9207C98.7663 44.3784 98.2862 44.6966 97.6833 44.8753ZM93.4294 43.9039H95.3051C95.774 43.9039 96.1313 43.8034 96.377 43.6024C96.6338 43.3903 96.7621 43.0833 96.7621 42.6813C96.7621 42.2794 96.6338 41.9724 96.377 41.7602C96.1313 41.5481 95.774 41.442 95.3051 41.442H93.4294V43.9039ZM95.5396 48.5932C96.0197 48.5932 96.3881 48.4871 96.6449 48.275C96.9129 48.0517 97.0469 47.7335 97.0469 47.3204C97.0469 46.9073 96.9073 46.5835 96.6282 46.349C96.3602 46.1146 95.9862 45.9973 95.5061 45.9973H93.4294V48.5932H95.5396ZM101.036 46.2151C101.036 45.2549 101.214 44.4119 101.572 43.6862C101.94 42.9605 102.437 42.4022 103.062 42.0114C103.687 41.6207 104.385 41.4253 105.156 41.4253C105.814 41.4253 106.389 41.5593 106.881 41.8272C107.383 42.0952 107.768 42.4469 108.036 42.8823V41.5593H110.9V50.9044H108.036V49.5813C107.757 50.0167 107.366 50.3684 106.864 50.6364C106.373 50.9044 105.798 51.0383 105.139 51.0383C104.38 51.0383 103.687 50.843 103.062 50.4522C102.437 50.0502 101.94 49.4864 101.572 48.7607C101.214 48.0238 101.036 47.1752 101.036 46.2151ZM108.036 46.2318C108.036 45.5172 107.835 44.9534 107.433 44.5403C107.043 44.1272 106.562 43.9207 105.993 43.9207C105.424 43.9207 104.938 44.1272 104.536 44.5403C104.145 44.9422 103.95 45.5005 103.95 46.2151C103.95 46.9296 104.145 47.499 104.536 47.9233C104.938 48.3364 105.424 48.543 105.993 48.543C106.562 48.543 107.043 48.3364 107.433 47.9233C107.835 47.5102 108.036 46.9464 108.036 46.2318ZM118.666 41.4588C119.76 41.4588 120.631 41.816 121.279 42.5306C121.937 43.234 122.267 44.2054 122.267 45.4447V50.9044H119.42V45.8299C119.42 45.2046 119.258 44.7189 118.934 44.3728C118.61 44.0267 118.175 43.8537 117.628 43.8537C117.081 43.8537 116.645 44.0267 116.321 44.3728C115.998 44.7189 115.836 45.2046 115.836 45.8299V50.9044H112.972V41.5593H115.836V42.7986C116.126 42.3855 116.517 42.0617 117.008 41.8272C117.499 41.5816 118.052 41.4588 118.666 41.4588ZM129.968 50.9044L127.121 46.9854V50.9044H124.257V38.5112H127.121V45.3609L129.951 41.5593H133.485L129.599 46.2486L133.518 50.9044H129.968Z" fill="white"/>
<path d="M54.35 63.9919C54.35 64.3219 54.2743 64.6248 54.1228 64.9006C53.9714 65.171 53.7388 65.3901 53.4251 65.5577C53.1114 65.7254 52.722 65.8092 52.2569 65.8092H51.3969V67.8537H50.0096V62.1584H52.2569C52.7112 62.1584 53.0952 62.2369 53.4089 62.3937C53.7226 62.5506 53.9579 62.7669 54.1147 63.0427C54.2716 63.3186 54.35 63.635 54.35 63.9919ZM52.1514 64.7059C52.4164 64.7059 52.6138 64.6437 52.7436 64.5193C52.8735 64.3949 52.9384 64.2191 52.9384 63.9919C52.9384 63.7648 52.8735 63.589 52.7436 63.4646C52.6138 63.3402 52.4164 63.278 52.1514 63.278H51.3969V64.7059H52.1514ZM56.4596 61.8501V67.8537H55.0722V61.8501H56.4596ZM57.1891 65.5821C57.1891 65.1169 57.2756 64.7086 57.4487 64.357C57.6272 64.0055 57.8679 63.735 58.1707 63.5457C58.4736 63.3564 58.8117 63.2618 59.1849 63.2618C59.504 63.2618 59.7825 63.3267 60.0205 63.4565C60.2639 63.5863 60.4505 63.7567 60.5803 63.9676V63.3267H61.9676V67.8537H60.5803V67.2128C60.4451 67.4237 60.2558 67.5941 60.0124 67.7239C59.7744 67.8537 59.4959 67.9186 59.1768 67.9186C58.809 67.9186 58.4736 67.824 58.1707 67.6346C57.8679 67.4399 57.6272 67.1668 57.4487 66.8152C57.2756 66.4583 57.1891 66.0472 57.1891 65.5821ZM60.5803 65.5902C60.5803 65.244 60.4829 64.9709 60.2882 64.7708C60.0989 64.5707 59.8663 64.4706 59.5905 64.4706C59.3147 64.4706 59.0794 64.5707 58.8847 64.7708C58.6954 64.9655 58.6007 65.2359 58.6007 65.5821C58.6007 65.9282 58.6954 66.2041 58.8847 66.4096C59.0794 66.6097 59.3147 66.7098 59.5905 66.7098C59.8663 66.7098 60.0989 66.6097 60.2882 66.4096C60.4829 66.2095 60.5803 65.9363 60.5803 65.5902ZM65.4944 66.6773V67.8537H64.7885C64.2855 67.8537 63.8934 67.732 63.6122 67.4886C63.3309 67.2398 63.1903 66.8369 63.1903 66.2798V64.4787H62.6386V63.3267H63.1903V62.2233H64.5776V63.3267H65.4863V64.4787H64.5776V66.296C64.5776 66.4312 64.6101 66.5286 64.675 66.5881C64.7399 66.6476 64.848 66.6773 64.9995 66.6773H65.4944ZM66.9648 62.8561C66.7215 62.8561 66.5213 62.7858 66.3645 62.6452C66.213 62.4992 66.1373 62.3207 66.1373 62.1098C66.1373 61.8934 66.213 61.7149 66.3645 61.5743C66.5213 61.4283 66.7215 61.3552 66.9648 61.3552C67.2028 61.3552 67.3975 61.4283 67.549 61.5743C67.7058 61.7149 67.7842 61.8934 67.7842 62.1098C67.7842 62.3207 67.7058 62.4992 67.549 62.6452C67.3975 62.7858 67.2028 62.8561 66.9648 62.8561ZM67.6544 63.3267V67.8537H66.2671V63.3267H67.6544ZM71.4182 63.278C71.9482 63.278 72.3701 63.4511 72.6838 63.7972C73.0029 64.138 73.1625 64.6085 73.1625 65.2089V67.8537H71.7833V65.3955C71.7833 65.0926 71.7049 64.8573 71.548 64.6897C71.3912 64.522 71.1802 64.4382 70.9152 64.4382C70.6502 64.4382 70.4392 64.522 70.2824 64.6897C70.1255 64.8573 70.0471 65.0926 70.0471 65.3955V67.8537H68.6598V63.3267H70.0471V63.927C70.1877 63.7269 70.377 63.5701 70.615 63.4565C70.853 63.3375 71.1207 63.278 71.4182 63.278ZM78.5967 63.3267V67.8537H77.2094V67.2371C77.0688 67.4372 76.8768 67.5995 76.6334 67.7239C76.3954 67.8429 76.1304 67.9024 75.8383 67.9024C75.4922 67.9024 75.1866 67.8267 74.9216 67.6752C74.6566 67.5184 74.451 67.2939 74.305 67.0018C74.159 66.7098 74.086 66.3663 74.086 65.9715V63.3267H75.4652V65.7849C75.4652 66.0878 75.5436 66.3231 75.7004 66.4907C75.8573 66.6584 76.0682 66.7422 76.3332 66.7422C76.6037 66.7422 76.8173 66.6584 76.9742 66.4907C77.131 66.3231 77.2094 66.0878 77.2094 65.7849V63.3267H78.5967ZM85.3696 63.278C85.9321 63.278 86.3783 63.4484 86.7083 63.7891C87.0436 64.1299 87.2113 64.6031 87.2113 65.2089V67.8537H85.8321V65.3955C85.8321 65.1034 85.7536 64.879 85.5968 64.7221C85.4454 64.5599 85.2344 64.4787 84.964 64.4787C84.6936 64.4787 84.4799 64.5599 84.3231 64.7221C84.1716 64.879 84.0959 65.1034 84.0959 65.3955V67.8537H82.7167V65.3955C82.7167 65.1034 82.6383 64.879 82.4814 64.7221C82.33 64.5599 82.1191 64.4787 81.8486 64.4787C81.5782 64.4787 81.3646 64.5599 81.2077 64.7221C81.0563 64.879 80.9805 65.1034 80.9805 65.3955V67.8537H79.5932V63.3267H80.9805V63.8946C81.1212 63.7053 81.3051 63.5566 81.5322 63.4484C81.7594 63.3348 82.0163 63.278 82.303 63.278C82.6437 63.278 82.9466 63.351 83.2116 63.4971C83.482 63.6431 83.693 63.8513 83.8444 64.1218C84.0013 63.873 84.2149 63.6701 84.4853 63.5133C84.7558 63.3564 85.0505 63.278 85.3696 63.278ZM89.6655 64.998C89.6655 64.4355 89.7872 63.9352 90.0306 63.4971C90.274 63.0536 90.612 62.7101 91.0447 62.4667C91.4828 62.2179 91.9777 62.0935 92.5294 62.0935C93.2054 62.0935 93.7841 62.272 94.2655 62.629C94.7469 62.9859 95.0687 63.4727 95.231 64.0893H93.7057C93.5921 63.8513 93.4299 63.6701 93.2189 63.5457C93.0134 63.4213 92.7781 63.3591 92.5131 63.3591C92.0858 63.3591 91.7397 63.5079 91.4747 63.8054C91.2096 64.1028 91.0771 64.5004 91.0771 64.998C91.0771 65.4955 91.2096 65.8931 91.4747 66.1905C91.7397 66.488 92.0858 66.6368 92.5131 66.6368C92.7781 66.6368 93.0134 66.5746 93.2189 66.4502C93.4299 66.3258 93.5921 66.1446 93.7057 65.9066H95.231C95.0687 66.5232 94.7469 67.01 94.2655 67.3669C93.7841 67.7185 93.2054 67.8943 92.5294 67.8943C91.9777 67.8943 91.4828 67.7726 91.0447 67.5292C90.612 67.2804 90.274 66.9369 90.0306 66.4988C89.7872 66.0607 89.6655 65.5604 89.6655 64.998ZM95.8047 65.5821C95.8047 65.1169 95.8912 64.7086 96.0643 64.357C96.2428 64.0055 96.4835 63.735 96.7864 63.5457C97.0892 63.3564 97.4273 63.2618 97.8005 63.2618C98.1196 63.2618 98.3981 63.3267 98.6361 63.4565C98.8795 63.5863 99.0661 63.7567 99.1959 63.9676V63.3267H100.583V67.8537H99.1959V67.2128C99.0607 67.4237 98.8714 67.5941 98.628 67.7239C98.39 67.8537 98.1115 67.9186 97.7924 67.9186C97.4246 67.9186 97.0892 67.824 96.7864 67.6346C96.4835 67.4399 96.2428 67.1668 96.0643 66.8152C95.8912 66.4583 95.8047 66.0472 95.8047 65.5821ZM99.1959 65.5902C99.1959 65.244 99.0985 64.9709 98.9038 64.7708C98.7145 64.5707 98.482 64.4706 98.2061 64.4706C97.9303 64.4706 97.695 64.5707 97.5003 64.7708C97.311 64.9655 97.2163 65.2359 97.2163 65.5821C97.2163 65.9282 97.311 66.2041 97.5003 66.4096C97.695 66.6097 97.9303 66.7098 98.2061 66.7098C98.482 66.7098 98.7145 66.6097 98.9038 66.4096C99.0985 66.2095 99.1959 65.9363 99.1959 65.5902ZM102.974 64.0812C103.136 63.8324 103.339 63.6377 103.583 63.4971C103.826 63.351 104.096 63.278 104.394 63.278V64.7464H104.013C103.666 64.7464 103.407 64.8222 103.234 64.9736C103.061 65.1196 102.974 65.3793 102.974 65.7525V67.8537H101.587V63.3267H102.974V64.0812ZM104.781 65.5821C104.781 65.1169 104.868 64.7086 105.041 64.357C105.219 64.0055 105.46 63.735 105.763 63.5457C106.066 63.3564 106.404 63.2618 106.777 63.2618C107.074 63.2618 107.345 63.324 107.588 63.4484C107.837 63.5728 108.032 63.7404 108.172 63.9514V61.8501H109.56V67.8537H108.172V67.2047C108.043 67.421 107.856 67.5941 107.613 67.7239C107.375 67.8537 107.096 67.9186 106.777 67.9186C106.404 67.9186 106.066 67.824 105.763 67.6346C105.46 67.4399 105.219 67.1668 105.041 66.8152C104.868 66.4583 104.781 66.0472 104.781 65.5821ZM108.172 65.5902C108.172 65.244 108.075 64.9709 107.88 64.7708C107.691 64.5707 107.458 64.4706 107.183 64.4706C106.907 64.4706 106.672 64.5707 106.477 64.7708C106.287 64.9655 106.193 65.2359 106.193 65.5821C106.193 65.9282 106.287 66.2041 106.477 66.4096C106.672 66.6097 106.907 66.7098 107.183 66.7098C107.458 66.7098 107.691 66.6097 107.88 66.4096C108.075 66.2095 108.172 65.9363 108.172 65.5902Z" fill="white" fill-opacity="0.39"/>
<path d="M60.8972 137.348H53.6975V141.625C53.9984 141.224 54.4425 140.887 55.03 140.615C55.6317 140.343 56.2693 140.206 56.9427 140.206C58.1463 140.206 59.1206 140.464 59.8656 140.98C60.625 141.496 61.1623 142.148 61.4775 142.936C61.807 143.724 61.9718 144.555 61.9718 145.429C61.9718 146.489 61.7641 147.435 61.3486 148.266C60.9474 149.083 60.3384 149.727 59.5218 150.2C58.7194 150.673 57.7308 150.909 56.5559 150.909C54.9942 150.909 53.7405 150.522 52.7948 149.749C51.8492 148.975 51.2832 147.951 51.097 146.675H53.4826C53.6402 147.349 53.9912 147.886 54.5357 148.287C55.0801 148.674 55.7607 148.868 56.5774 148.868C57.5947 148.868 58.354 148.56 58.8555 147.943C59.3713 147.327 59.6292 146.511 59.6292 145.493C59.6292 144.462 59.3713 143.674 58.8555 143.129C58.3397 142.57 57.5803 142.291 56.5774 142.291C55.8753 142.291 55.2807 142.47 54.7936 142.828C54.3207 143.172 53.9769 143.645 53.762 144.247H51.4409V135.199H60.8972V137.348ZM74.4515 137.133L68.4768 150.909H66.0052L72.0444 137.391H64.0924V135.306H74.4515V137.133ZM79.1919 142.721C77.7018 141.976 76.9568 140.801 76.9568 139.196C76.9568 138.423 77.1502 137.713 77.5371 137.069C77.9239 136.424 78.5042 135.915 79.2779 135.543C80.0516 135.156 80.9972 134.962 82.1148 134.962C83.218 134.962 84.1565 135.156 84.9302 135.543C85.7182 135.915 86.3057 136.424 86.6925 137.069C87.0794 137.713 87.2728 138.423 87.2728 139.196C87.2728 139.999 87.0651 140.708 86.6496 141.324C86.2484 141.926 85.7111 142.391 85.0377 142.721C85.8544 143.022 86.4991 143.516 86.9719 144.204C87.4448 144.877 87.6812 145.672 87.6812 146.589C87.6812 147.521 87.4448 148.345 86.9719 149.061C86.4991 149.777 85.84 150.329 84.9947 150.716C84.1494 151.103 83.1894 151.296 82.1148 151.296C81.0402 151.296 80.0802 151.103 79.2349 150.716C78.4039 150.329 77.752 149.777 77.2792 149.061C76.8063 148.345 76.5699 147.521 76.5699 146.589C76.5699 145.658 76.8063 144.856 77.2792 144.182C77.752 143.509 78.3896 143.022 79.1919 142.721ZM84.9302 139.497C84.9302 138.695 84.6795 138.079 84.178 137.649C83.6765 137.219 82.9888 137.004 82.1148 137.004C81.2551 137.004 80.5746 137.219 80.0731 137.649C79.5716 138.079 79.3209 138.702 79.3209 139.519C79.3209 140.235 79.5788 140.823 80.0946 141.281C80.6247 141.725 81.2981 141.947 82.1148 141.947C82.9315 141.947 83.6049 141.718 84.135 141.26C84.6652 140.801 84.9302 140.214 84.9302 139.497ZM82.1148 143.796C81.1692 143.796 80.3955 144.032 79.7937 144.505C79.2062 144.963 78.9125 145.629 78.9125 146.503C78.9125 147.32 79.1991 147.986 79.7722 148.502C80.3453 149.004 81.1262 149.254 82.1148 149.254C83.0891 149.254 83.8556 148.997 84.4144 148.481C84.9875 147.965 85.2741 147.306 85.2741 146.503C85.2741 145.644 84.9804 144.978 84.3929 144.505C83.8198 144.032 83.0604 143.796 82.1148 143.796ZM93.3055 146.654C93.4487 147.37 93.7568 147.915 94.2296 148.287C94.7024 148.66 95.34 148.846 96.1424 148.846C97.1596 148.846 97.9047 148.445 98.3775 147.643C98.8503 146.84 99.0867 145.472 99.0867 143.538C98.7429 144.025 98.2557 144.404 97.6253 144.677C97.0092 144.935 96.3358 145.064 95.6051 145.064C94.6738 145.064 93.8284 144.877 93.069 144.505C92.3097 144.118 91.7079 143.552 91.2637 142.807C90.8339 142.048 90.619 141.131 90.619 140.056C90.619 138.48 91.0775 137.226 91.9945 136.295C92.9258 135.349 94.2009 134.876 95.82 134.876C97.7686 134.876 99.1512 135.528 99.9679 136.832C100.799 138.122 101.214 140.106 101.214 142.785C101.214 144.634 101.057 146.145 100.742 147.32C100.441 148.495 99.9106 149.383 99.1512 149.985C98.3918 150.587 97.3387 150.888 95.9919 150.888C94.4588 150.888 93.2768 150.487 92.4458 149.684C91.6148 148.882 91.1491 147.872 91.0488 146.654H93.3055ZM96.0349 143C96.8946 143 97.568 142.735 98.0551 142.205C98.5566 141.661 98.8073 140.944 98.8073 140.056C98.8073 139.067 98.5423 138.301 98.0122 137.756C97.4963 137.198 96.7871 136.918 95.8845 136.918C94.9818 136.918 94.2654 137.205 93.7353 137.778C93.2195 138.337 92.9616 139.075 92.9616 139.991C92.9616 140.865 93.2123 141.589 93.7138 142.162C94.2296 142.721 95.0033 143 96.0349 143Z" fill="white"/>
<path d="M296.346 147.578C297.722 146.389 298.804 145.415 299.592 144.655C300.394 143.882 301.06 143.079 301.59 142.248C302.12 141.417 302.386 140.586 302.386 139.755C302.386 138.895 302.178 138.222 301.762 137.735C301.361 137.248 300.724 137.004 299.85 137.004C299.004 137.004 298.345 137.276 297.872 137.821C297.414 138.351 297.17 139.067 297.142 139.97H294.777C294.82 138.337 295.308 137.09 296.239 136.23C297.185 135.356 298.381 134.919 299.828 134.919C301.39 134.919 302.608 135.349 303.482 136.209C304.37 137.069 304.814 138.215 304.814 139.648C304.814 140.679 304.549 141.675 304.019 142.635C303.503 143.581 302.88 144.433 302.149 145.193C301.433 145.938 300.516 146.804 299.398 147.793L298.431 148.653H305.244V150.694H294.799V148.911L296.346 147.578ZM310.04 142.721C308.55 141.976 307.805 140.801 307.805 139.196C307.805 138.423 307.998 137.713 308.385 137.069C308.772 136.424 309.352 135.915 310.126 135.543C310.899 135.156 311.845 134.962 312.963 134.962C314.066 134.962 315.004 135.156 315.778 135.543C316.566 135.915 317.154 136.424 317.54 137.069C317.927 137.713 318.121 138.423 318.121 139.196C318.121 139.999 317.913 140.708 317.497 141.324C317.096 141.926 316.559 142.391 315.886 142.721C316.702 143.022 317.347 143.516 317.82 144.204C318.293 144.877 318.529 145.673 318.529 146.59C318.529 147.521 318.293 148.345 317.82 149.061C317.347 149.777 316.688 150.329 315.843 150.716C314.997 151.103 314.037 151.296 312.963 151.296C311.888 151.296 310.928 151.103 310.083 150.716C309.252 150.329 308.6 149.777 308.127 149.061C307.654 148.345 307.418 147.521 307.418 146.59C307.418 145.658 307.654 144.856 308.127 144.182C308.6 143.509 309.237 143.022 310.04 142.721ZM315.778 139.497C315.778 138.695 315.527 138.079 315.026 137.649C314.524 137.219 313.837 137.004 312.963 137.004C312.103 137.004 311.422 137.219 310.921 137.649C310.419 138.079 310.169 138.702 310.169 139.519C310.169 140.235 310.427 140.823 310.942 141.281C311.473 141.725 312.146 141.947 312.963 141.947C313.779 141.947 314.453 141.718 314.983 141.26C315.513 140.801 315.778 140.214 315.778 139.497ZM312.963 143.796C312.017 143.796 311.243 144.032 310.642 144.505C310.054 144.963 309.76 145.63 309.76 146.504C309.76 147.32 310.047 147.986 310.62 148.502C311.193 149.004 311.974 149.254 312.963 149.254C313.937 149.254 314.704 148.997 315.262 148.481C315.835 147.965 316.122 147.306 316.122 146.504C316.122 145.644 315.828 144.978 315.241 144.505C314.668 144.032 313.908 143.796 312.963 143.796ZM320.801 147.643V145.794L328.022 135.435H330.988V145.515H332.986V147.643H330.988V150.909H328.581V147.643H320.801ZM328.688 137.928L323.616 145.515H328.688V137.928ZM344.946 137.133L338.971 150.909H336.5L342.539 137.391H334.587V135.306H344.946V137.133Z" fill="white"/>
<path d="M136.425 136.407L137.392 138.126L134.448 139.223L137.392 140.319L136.403 142.081L133.953 140.147L134.405 143.263H132.427L132.836 140.147L130.386 142.124L129.354 140.297L132.277 139.201L129.354 138.148L130.343 136.386L132.857 138.32L132.427 135.182H134.426L133.953 138.32L136.425 136.407ZM152.837 136.407L153.805 138.126L150.86 139.223L153.805 140.319L152.816 142.081L150.366 140.147L150.817 143.263H148.84L149.248 140.147L146.798 142.124L145.767 140.297L148.69 139.201L145.767 138.148L146.755 136.386L149.27 138.32L148.84 135.182H150.839L150.366 138.32L152.837 136.407ZM169.25 136.407L170.217 138.126L167.273 139.223L170.217 140.319L169.229 142.081L166.779 140.147L167.23 143.263H165.253L165.661 140.147L163.211 142.124L162.179 140.297L165.102 139.201L162.179 138.148L163.168 136.386L165.682 138.32L165.253 135.182H167.251L166.779 138.32L169.25 136.407ZM185.663 136.407L186.63 138.126L183.685 139.223L186.63 140.319L185.641 142.081L183.191 140.147L183.643 143.263H181.665L182.074 140.147L179.624 142.124L178.592 140.297L181.515 139.201L178.592 138.148L179.581 136.386L182.095 138.32L181.665 135.182H183.664L183.191 138.32L185.663 136.407Z" fill="white"/>
<path d="M224.425 136.407L225.392 138.126L222.448 139.223L225.392 140.319L224.403 142.081L221.953 140.147L222.405 143.263H220.427L220.836 140.147L218.386 142.124L217.354 140.297L220.277 139.201L217.354 138.148L218.343 136.386L220.857 138.32L220.427 135.182H222.426L221.953 138.32L224.425 136.407ZM240.837 136.407L241.805 138.126L238.86 139.223L241.805 140.319L240.816 142.081L238.366 140.147L238.817 143.263H236.84L237.248 140.147L234.798 142.124L233.767 140.297L236.69 139.201L233.767 138.148L234.755 136.386L237.27 138.32L236.84 135.182H238.839L238.366 138.32L240.837 136.407ZM257.25 136.407L258.217 138.126L255.273 139.223L258.217 140.319L257.229 142.081L254.779 140.147L255.23 143.263H253.253L253.661 140.147L251.211 142.124L250.179 140.297L253.102 139.201L250.179 138.148L251.168 136.386L253.682 138.32L253.253 135.182H255.251L254.779 138.32L257.25 136.407ZM273.663 136.407L274.63 138.126L271.685 139.223L274.63 140.319L273.641 142.081L271.191 140.147L271.643 143.263H269.665L270.074 140.147L267.624 142.124L266.592 140.297L269.515 139.201L266.592 138.148L267.581 136.386L270.095 138.32L269.665 135.182H271.664L271.191 138.32L273.663 136.407Z" fill="white"/>
<path d="M55.7785 230L52.3846 226.076V230H50.9463V221.231H52.3846V225.231L55.7911 221.231H57.5953L53.785 225.622L57.6584 230H55.7785ZM58.4508 226.493C58.4508 225.794 58.5938 225.176 58.8798 224.638C59.1742 224.1 59.5695 223.683 60.0658 223.389C60.5704 223.086 61.1256 222.935 61.7312 222.935C62.2779 222.935 62.7531 223.044 63.1569 223.263C63.569 223.473 63.8971 223.738 64.141 224.058V223.048H65.5919V230H64.141V228.965C63.8971 229.293 63.5648 229.567 63.1443 229.786C62.7237 230.004 62.2443 230.114 61.706 230.114C61.1088 230.114 60.562 229.962 60.0658 229.659C59.5695 229.348 59.1742 228.919 58.8798 228.372C58.5938 227.817 58.4508 227.191 58.4508 226.493ZM64.141 226.518C64.141 226.038 64.04 225.622 63.8382 225.269C63.6447 224.915 63.3882 224.646 63.0686 224.461C62.7489 224.276 62.4041 224.184 62.034 224.184C61.6639 224.184 61.319 224.276 60.9994 224.461C60.6798 224.638 60.419 224.903 60.2172 225.256C60.0237 225.601 59.927 226.013 59.927 226.493C59.927 226.972 60.0237 227.393 60.2172 227.754C60.419 228.116 60.6798 228.393 60.9994 228.587C61.3275 228.772 61.6723 228.864 62.034 228.864C62.4041 228.864 62.7489 228.772 63.0686 228.587C63.3882 228.402 63.6447 228.133 63.8382 227.779C64.04 227.418 64.141 226.997 64.141 226.518ZM70.1684 228.713L72.1366 223.048H73.6633L71.0137 230H69.2979L66.661 223.048H68.2002L70.1684 228.713ZM81.1219 226.354C81.1219 226.615 81.1051 226.85 81.0714 227.06H75.7598C75.8019 227.615 76.0079 228.061 76.378 228.398C76.7481 228.734 77.2023 228.902 77.7406 228.902C78.5144 228.902 79.0612 228.579 79.3808 227.931H80.9327C80.7224 228.57 80.3397 229.096 79.7845 229.508C79.2378 229.912 78.5565 230.114 77.7406 230.114C77.0761 230.114 76.479 229.966 75.949 229.672C75.4276 229.369 75.0154 228.949 74.7126 228.41C74.4182 227.864 74.271 227.233 74.271 226.518C74.271 225.803 74.414 225.176 74.7 224.638C74.9944 224.091 75.4023 223.671 75.9238 223.376C76.4537 223.082 77.0593 222.935 77.7406 222.935C78.3967 222.935 78.9813 223.078 79.4943 223.364C80.0074 223.65 80.407 224.053 80.6929 224.575C80.9789 225.088 81.1219 225.681 81.1219 226.354ZM79.6205 225.9C79.6121 225.37 79.4229 224.945 79.0528 224.625C78.6827 224.306 78.2243 224.146 77.6775 224.146C77.1813 224.146 76.7565 224.306 76.4033 224.625C76.05 224.936 75.8397 225.361 75.7724 225.9H79.6205ZM83.9756 224.058C84.1859 223.704 84.4635 223.431 84.8084 223.237C85.1616 223.036 85.578 222.935 86.0574 222.935V224.423H85.6915C85.128 224.423 84.699 224.566 84.4046 224.852C84.1186 225.138 83.9756 225.635 83.9756 226.341V230H82.5373V223.048H83.9756V224.058ZM88.1113 222.127C87.8505 222.127 87.6318 222.039 87.4552 221.862C87.2786 221.686 87.1903 221.467 87.1903 221.206C87.1903 220.945 87.2786 220.727 87.4552 220.55C87.6318 220.373 87.8505 220.285 88.1113 220.285C88.3636 220.285 88.5781 220.373 88.7547 220.55C88.9314 220.727 89.0197 220.945 89.0197 221.206C89.0197 221.467 88.9314 221.686 88.7547 221.862C88.5781 222.039 88.3636 222.127 88.1113 222.127ZM88.8178 223.048V230H87.3795V223.048H88.8178ZM100.986 221.231V230H99.5475V226.165H95.4219V230H93.9836V221.231H95.4219V224.991H99.5475V221.231H100.986ZM105.895 230.114C105.239 230.114 104.646 229.966 104.116 229.672C103.586 229.369 103.17 228.949 102.867 228.41C102.564 227.864 102.413 227.233 102.413 226.518C102.413 225.811 102.568 225.185 102.879 224.638C103.191 224.091 103.615 223.671 104.154 223.376C104.692 223.082 105.293 222.935 105.958 222.935C106.622 222.935 107.224 223.082 107.762 223.376C108.3 223.671 108.725 224.091 109.036 224.638C109.348 225.185 109.503 225.811 109.503 226.518C109.503 227.224 109.343 227.851 109.024 228.398C108.704 228.944 108.267 229.369 107.712 229.672C107.165 229.966 106.559 230.114 105.895 230.114ZM105.895 228.864C106.265 228.864 106.61 228.776 106.929 228.6C107.257 228.423 107.522 228.158 107.724 227.805C107.926 227.451 108.027 227.022 108.027 226.518C108.027 226.013 107.93 225.588 107.737 225.243C107.543 224.89 107.287 224.625 106.967 224.449C106.648 224.272 106.303 224.184 105.933 224.184C105.563 224.184 105.218 224.272 104.898 224.449C104.587 224.625 104.339 224.89 104.154 225.243C103.969 225.588 103.876 226.013 103.876 226.518C103.876 227.266 104.065 227.847 104.444 228.259C104.831 228.663 105.314 228.864 105.895 228.864ZM113.448 230.114C112.902 230.114 112.41 230.017 111.972 229.823C111.543 229.621 111.203 229.352 110.95 229.016C110.698 228.671 110.563 228.288 110.546 227.868H112.035C112.06 228.162 112.199 228.41 112.452 228.612C112.712 228.806 113.036 228.902 113.423 228.902C113.827 228.902 114.138 228.827 114.357 228.675C114.584 228.515 114.697 228.314 114.697 228.07C114.697 227.809 114.571 227.615 114.319 227.489C114.075 227.363 113.684 227.224 113.146 227.073C112.624 226.93 112.199 226.791 111.871 226.657C111.543 226.522 111.257 226.316 111.013 226.038C110.778 225.761 110.66 225.395 110.66 224.941C110.66 224.571 110.769 224.234 110.988 223.931C111.207 223.62 111.518 223.376 111.922 223.2C112.334 223.023 112.805 222.935 113.335 222.935C114.125 222.935 114.76 223.137 115.24 223.54C115.728 223.936 115.988 224.478 116.022 225.168H114.584C114.559 224.857 114.432 224.608 114.205 224.423C113.978 224.238 113.671 224.146 113.284 224.146C112.906 224.146 112.616 224.217 112.414 224.36C112.212 224.503 112.111 224.693 112.111 224.928C112.111 225.113 112.178 225.269 112.313 225.395C112.447 225.521 112.611 225.622 112.805 225.698C112.998 225.765 113.284 225.853 113.663 225.963C114.167 226.097 114.58 226.236 114.899 226.379C115.227 226.514 115.509 226.715 115.745 226.985C115.98 227.254 116.102 227.611 116.11 228.057C116.11 228.452 116.001 228.806 115.782 229.117C115.564 229.428 115.253 229.672 114.849 229.849C114.453 230.025 113.987 230.114 113.448 230.114ZM119.103 224.07C119.347 223.751 119.679 223.481 120.1 223.263C120.52 223.044 120.995 222.935 121.525 222.935C122.131 222.935 122.682 223.086 123.178 223.389C123.683 223.683 124.078 224.1 124.364 224.638C124.65 225.176 124.793 225.794 124.793 226.493C124.793 227.191 124.65 227.817 124.364 228.372C124.078 228.919 123.683 229.348 123.178 229.659C122.682 229.962 122.131 230.114 121.525 230.114C120.995 230.114 120.524 230.008 120.112 229.798C119.7 229.579 119.364 229.31 119.103 228.991V233.306H117.665V223.048H119.103V224.07ZM123.329 226.493C123.329 226.013 123.229 225.601 123.027 225.256C122.833 224.903 122.572 224.638 122.244 224.461C121.925 224.276 121.58 224.184 121.21 224.184C120.848 224.184 120.503 224.276 120.175 224.461C119.856 224.646 119.595 224.915 119.393 225.269C119.2 225.622 119.103 226.038 119.103 226.518C119.103 226.997 119.2 227.418 119.393 227.779C119.595 228.133 119.856 228.402 120.175 228.587C120.503 228.772 120.848 228.864 121.21 228.864C121.58 228.864 121.925 228.772 122.244 228.587C122.572 228.393 122.833 228.116 123.027 227.754C123.229 227.393 123.329 226.972 123.329 226.493ZM126.947 222.127C126.686 222.127 126.468 222.039 126.291 221.862C126.114 221.686 126.026 221.467 126.026 221.206C126.026 220.945 126.114 220.727 126.291 220.55C126.468 220.373 126.686 220.285 126.947 220.285C127.199 220.285 127.414 220.373 127.591 220.55C127.767 220.727 127.856 220.945 127.856 221.206C127.856 221.467 127.767 221.686 127.591 221.862C127.414 222.039 127.199 222.127 126.947 222.127ZM127.654 223.048V230H126.215V223.048H127.654ZM131.22 224.222V228.07C131.22 228.33 131.279 228.52 131.397 228.637C131.523 228.747 131.733 228.801 132.028 228.801H132.911V230H131.775C131.128 230 130.631 229.849 130.286 229.546C129.942 229.243 129.769 228.751 129.769 228.07V224.222H128.949V223.048H129.769V221.32H131.22V223.048H132.911V224.222H131.22ZM133.757 226.493C133.757 225.794 133.9 225.176 134.186 224.638C134.48 224.1 134.876 223.683 135.372 223.389C135.877 223.086 136.432 222.935 137.037 222.935C137.584 222.935 138.059 223.044 138.463 223.263C138.875 223.473 139.203 223.738 139.447 224.058V223.048H140.898V230H139.447V228.965C139.203 229.293 138.871 229.567 138.45 229.786C138.03 230.004 137.55 230.114 137.012 230.114C136.415 230.114 135.868 229.962 135.372 229.659C134.876 229.348 134.48 228.919 134.186 228.372C133.9 227.817 133.757 227.191 133.757 226.493ZM139.447 226.518C139.447 226.038 139.346 225.622 139.144 225.269C138.951 224.915 138.694 224.646 138.375 224.461C138.055 224.276 137.71 224.184 137.34 224.184C136.97 224.184 136.625 224.276 136.305 224.461C135.986 224.638 135.725 224.903 135.523 225.256C135.33 225.601 135.233 226.013 135.233 226.493C135.233 226.972 135.33 227.393 135.523 227.754C135.725 228.116 135.986 228.393 136.305 228.587C136.634 228.772 136.978 228.864 137.34 228.864C137.71 228.864 138.055 228.772 138.375 228.587C138.694 228.402 138.951 228.133 139.144 227.779C139.346 227.418 139.447 226.997 139.447 226.518ZM144.225 220.664V230H142.787V220.664H144.225ZM148.637 230.114C148.09 230.114 147.598 230.017 147.161 229.823C146.732 229.621 146.391 229.352 146.139 229.016C145.887 228.671 145.752 228.288 145.735 227.868H147.224C147.249 228.162 147.388 228.41 147.64 228.612C147.901 228.806 148.225 228.902 148.612 228.902C149.016 228.902 149.327 228.827 149.546 228.675C149.773 228.515 149.886 228.314 149.886 228.07C149.886 227.809 149.76 227.615 149.508 227.489C149.264 227.363 148.873 227.224 148.334 227.073C147.813 226.93 147.388 226.791 147.06 226.657C146.732 226.522 146.446 226.316 146.202 226.038C145.967 225.761 145.849 225.395 145.849 224.941C145.849 224.571 145.958 224.234 146.177 223.931C146.396 223.62 146.707 223.376 147.111 223.2C147.523 223.023 147.994 222.935 148.524 222.935C149.314 222.935 149.949 223.137 150.429 223.54C150.917 223.936 151.177 224.478 151.211 225.168H149.773C149.747 224.857 149.621 224.608 149.394 224.423C149.167 224.238 148.86 224.146 148.473 224.146C148.095 224.146 147.804 224.217 147.603 224.36C147.401 224.503 147.3 224.693 147.3 224.928C147.3 225.113 147.367 225.269 147.502 225.395C147.636 225.521 147.8 225.622 147.994 225.698C148.187 225.765 148.473 225.853 148.852 225.963C149.356 226.097 149.768 226.236 150.088 226.379C150.416 226.514 150.698 226.715 150.933 226.985C151.169 227.254 151.291 227.611 151.299 228.057C151.299 228.452 151.19 228.806 150.971 229.117C150.753 229.428 150.441 229.672 150.038 229.849C149.642 230.025 149.175 230.114 148.637 230.114Z" fill="white"/>
<path d="M183.625 202.068V203.532H185.348V204.2H183.625V205.729H185.563V206.396H182.807V201.401H185.563V202.068H183.625ZM188.265 204.394L189.543 206.396H188.617L187.763 205.054L186.959 206.396H186.104L187.382 204.451L186.104 202.441H187.03L187.885 203.784L188.688 202.441H189.543L188.265 204.394ZM190.971 203.023C191.11 202.841 191.299 202.688 191.538 202.563C191.777 202.439 192.048 202.377 192.349 202.377C192.694 202.377 193.007 202.463 193.29 202.635C193.577 202.803 193.802 203.04 193.964 203.346C194.127 203.652 194.208 204.004 194.208 204.401C194.208 204.798 194.127 205.155 193.964 205.47C193.802 205.781 193.577 206.026 193.29 206.203C193.007 206.375 192.694 206.461 192.349 206.461C192.048 206.461 191.78 206.401 191.545 206.282C191.311 206.157 191.119 206.004 190.971 205.822V208.277H190.153V202.441H190.971V203.023ZM193.376 204.401C193.376 204.128 193.318 203.894 193.203 203.698C193.093 203.497 192.945 203.346 192.758 203.245C192.577 203.14 192.38 203.087 192.17 203.087C191.964 203.087 191.768 203.14 191.581 203.245C191.399 203.351 191.251 203.504 191.136 203.705C191.026 203.906 190.971 204.143 190.971 204.415C190.971 204.688 191.026 204.927 191.136 205.133C191.251 205.334 191.399 205.487 191.581 205.592C191.768 205.698 191.964 205.75 192.17 205.75C192.38 205.75 192.577 205.698 192.758 205.592C192.945 205.482 193.093 205.324 193.203 205.119C193.318 204.913 193.376 204.674 193.376 204.401ZM195.434 201.917C195.285 201.917 195.161 201.867 195.061 201.767C194.96 201.666 194.91 201.542 194.91 201.393C194.91 201.245 194.96 201.121 195.061 201.02C195.161 200.92 195.285 200.869 195.434 200.869C195.577 200.869 195.699 200.92 195.8 201.02C195.9 201.121 195.951 201.245 195.951 201.393C195.951 201.542 195.9 201.666 195.8 201.767C195.699 201.867 195.577 201.917 195.434 201.917ZM195.836 202.441V206.396H195.017V202.441H195.836ZM197.728 203.016C197.848 202.815 198.006 202.659 198.202 202.549C198.403 202.434 198.64 202.377 198.913 202.377V203.224H198.704C198.384 203.224 198.14 203.305 197.972 203.468C197.81 203.631 197.728 203.913 197.728 204.315V206.396H196.91V202.441H197.728V203.016ZM203.29 204.322C203.29 204.47 203.28 204.604 203.261 204.724H200.239C200.263 205.04 200.38 205.293 200.591 205.485C200.801 205.676 201.06 205.772 201.366 205.772C201.806 205.772 202.117 205.588 202.299 205.219H203.182C203.062 205.583 202.845 205.882 202.529 206.116C202.218 206.346 201.83 206.461 201.366 206.461C200.988 206.461 200.648 206.377 200.347 206.21C200.05 206.037 199.816 205.798 199.643 205.492C199.476 205.181 199.392 204.822 199.392 204.415C199.392 204.009 199.473 203.652 199.636 203.346C199.804 203.035 200.036 202.796 200.332 202.628C200.634 202.461 200.978 202.377 201.366 202.377C201.739 202.377 202.072 202.458 202.364 202.621C202.656 202.784 202.883 203.013 203.046 203.31C203.208 203.602 203.29 203.939 203.29 204.322ZM202.435 204.064C202.431 203.762 202.323 203.52 202.112 203.339C201.902 203.157 201.641 203.066 201.33 203.066C201.048 203.066 200.806 203.157 200.605 203.339C200.404 203.516 200.284 203.757 200.246 204.064H202.435ZM205.687 204.401C205.687 204.004 205.768 203.652 205.931 203.346C206.098 203.04 206.323 202.803 206.605 202.635C206.892 202.463 207.211 202.377 207.56 202.377C207.818 202.377 208.072 202.434 208.321 202.549C208.574 202.659 208.775 202.807 208.924 202.994V201.085H209.749V206.396H208.924V205.801C208.79 205.992 208.603 206.15 208.364 206.274C208.129 206.399 207.859 206.461 207.553 206.461C207.208 206.461 206.892 206.375 206.605 206.203C206.323 206.026 206.098 205.781 205.931 205.47C205.768 205.155 205.687 204.798 205.687 204.401ZM208.924 204.415C208.924 204.143 208.866 203.906 208.752 203.705C208.641 203.504 208.496 203.351 208.314 203.245C208.132 203.14 207.936 203.087 207.725 203.087C207.515 203.087 207.318 203.14 207.137 203.245C206.955 203.346 206.806 203.497 206.691 203.698C206.581 203.894 206.526 204.128 206.526 204.401C206.526 204.674 206.581 204.913 206.691 205.119C206.806 205.324 206.955 205.482 207.137 205.592C207.323 205.698 207.519 205.75 207.725 205.75C207.936 205.75 208.132 205.698 208.314 205.592C208.496 205.487 208.641 205.334 208.752 205.133C208.866 204.927 208.924 204.688 208.924 204.415ZM210.551 204.401C210.551 204.004 210.633 203.652 210.795 203.346C210.963 203.04 211.188 202.803 211.47 202.635C211.757 202.463 212.073 202.377 212.417 202.377C212.728 202.377 212.999 202.439 213.229 202.563C213.463 202.683 213.65 202.834 213.788 203.016V202.441H214.614V206.396H213.788V205.808C213.65 205.994 213.461 206.15 213.221 206.274C212.982 206.399 212.709 206.461 212.403 206.461C212.063 206.461 211.752 206.375 211.47 206.203C211.188 206.026 210.963 205.781 210.795 205.47C210.633 205.155 210.551 204.798 210.551 204.401ZM213.788 204.415C213.788 204.143 213.731 203.906 213.616 203.705C213.506 203.504 213.36 203.351 213.178 203.245C212.996 203.14 212.8 203.087 212.59 203.087C212.379 203.087 212.183 203.14 212.001 203.245C211.819 203.346 211.671 203.497 211.556 203.698C211.446 203.894 211.391 204.128 211.391 204.401C211.391 204.674 211.446 204.913 211.556 205.119C211.671 205.324 211.819 205.482 212.001 205.592C212.188 205.698 212.384 205.75 212.59 205.75C212.8 205.75 212.996 205.698 213.178 205.592C213.36 205.487 213.506 205.334 213.616 205.133C213.731 204.927 213.788 204.688 213.788 204.415ZM216.643 203.109V205.298C216.643 205.447 216.677 205.554 216.744 205.621C216.815 205.683 216.935 205.714 217.103 205.714H217.605V206.396H216.959C216.591 206.396 216.308 206.31 216.112 206.138C215.916 205.966 215.818 205.686 215.818 205.298V203.109H215.351V202.441H215.818V201.458H216.643V202.441H217.605V203.109H216.643ZM221.984 204.322C221.984 204.47 221.974 204.604 221.955 204.724H218.933C218.957 205.04 219.075 205.293 219.285 205.485C219.496 205.676 219.754 205.772 220.06 205.772C220.501 205.772 220.812 205.588 220.993 205.219H221.876C221.757 205.583 221.539 205.882 221.223 206.116C220.912 206.346 220.525 206.461 220.06 206.461C219.682 206.461 219.343 206.377 219.041 206.21C218.744 206.037 218.51 205.798 218.338 205.492C218.17 205.181 218.086 204.822 218.086 204.415C218.086 204.009 218.168 203.652 218.331 203.346C218.498 203.035 218.73 202.796 219.027 202.628C219.328 202.461 219.673 202.377 220.06 202.377C220.434 202.377 220.766 202.458 221.058 202.621C221.35 202.784 221.577 203.013 221.74 203.31C221.903 203.602 221.984 203.939 221.984 204.322ZM221.13 204.064C221.125 203.762 221.017 203.52 220.807 203.339C220.596 203.157 220.335 203.066 220.024 203.066C219.742 203.066 219.5 203.157 219.3 203.339C219.099 203.516 218.979 203.757 218.941 204.064H221.13Z" fill="white"/>
<path d="M183.026 225.188C183.026 223.733 183.269 222.598 183.757 221.782C184.254 220.958 185.103 220.545 186.306 220.545C187.509 220.545 188.354 220.958 188.842 221.782C189.338 222.598 189.586 223.733 189.586 225.188C189.586 226.66 189.338 227.813 188.842 228.645C188.354 229.47 187.509 229.882 186.306 229.882C185.103 229.882 184.254 229.47 183.757 228.645C183.269 227.813 183.026 226.66 183.026 225.188ZM188.173 225.188C188.173 224.507 188.127 223.931 188.034 223.46C187.95 222.989 187.774 222.606 187.504 222.312C187.235 222.009 186.836 221.858 186.306 221.858C185.776 221.858 185.376 222.009 185.107 222.312C184.838 222.606 184.657 222.989 184.565 223.46C184.481 223.931 184.439 224.507 184.439 225.188C184.439 225.895 184.481 226.488 184.565 226.967C184.649 227.447 184.826 227.834 185.095 228.128C185.372 228.422 185.776 228.57 186.306 228.57C186.836 228.57 187.235 228.422 187.504 228.128C187.782 227.834 187.963 227.447 188.047 226.967C188.131 226.488 188.173 225.895 188.173 225.188ZM196.054 222.842C195.961 222.455 195.793 222.165 195.549 221.971C195.305 221.778 194.965 221.681 194.527 221.681C193.863 221.681 193.367 221.937 193.039 222.45C192.71 222.955 192.538 223.796 192.521 224.974C192.74 224.604 193.06 224.318 193.48 224.116C193.901 223.914 194.355 223.813 194.843 223.813C195.398 223.813 195.886 223.935 196.306 224.179C196.735 224.415 197.067 224.759 197.303 225.214C197.547 225.668 197.669 226.21 197.669 226.841C197.669 227.43 197.551 227.956 197.316 228.418C197.088 228.881 196.748 229.247 196.294 229.516C195.839 229.777 195.293 229.907 194.653 229.907C193.787 229.907 193.106 229.718 192.61 229.339C192.122 228.952 191.777 228.41 191.575 227.712C191.382 227.014 191.285 226.143 191.285 225.1C191.285 222.022 192.37 220.482 194.54 220.482C195.381 220.482 196.041 220.709 196.521 221.164C197.009 221.618 197.295 222.177 197.379 222.842H196.054ZM194.527 225.024C194.014 225.024 193.577 225.18 193.215 225.491C192.862 225.794 192.685 226.236 192.685 226.816C192.685 227.396 192.849 227.859 193.177 228.204C193.514 228.54 193.981 228.708 194.578 228.708C195.108 228.708 195.524 228.544 195.827 228.216C196.138 227.888 196.294 227.451 196.294 226.904C196.294 226.332 196.142 225.878 195.839 225.542C195.545 225.197 195.108 225.024 194.527 225.024ZM204.06 217.997L200.629 232.115H199.216L202.635 217.997H204.06ZM206.479 227.951C207.286 227.253 207.921 226.681 208.384 226.236C208.855 225.781 209.246 225.31 209.557 224.822C209.868 224.335 210.024 223.847 210.024 223.359C210.024 222.854 209.902 222.459 209.658 222.173C209.423 221.887 209.048 221.744 208.535 221.744C208.039 221.744 207.652 221.904 207.375 222.223C207.105 222.535 206.962 222.955 206.946 223.485H205.558C205.583 222.526 205.869 221.794 206.416 221.29C206.971 220.777 207.673 220.52 208.523 220.52C209.439 220.52 210.154 220.772 210.668 221.277C211.189 221.782 211.45 222.455 211.45 223.296C211.45 223.901 211.294 224.486 210.983 225.05C210.68 225.605 210.314 226.105 209.885 226.551C209.465 226.988 208.926 227.497 208.27 228.078L207.703 228.582H211.702V229.781H205.57V228.734L206.479 227.951ZM212.789 227.989V226.904L217.028 220.823H218.769V226.74H219.943V227.989H218.769V229.907H217.356V227.989H212.789ZM217.419 222.286L214.442 226.74H217.419V222.286Z" fill="white"/>
</g>
<defs>
<filter id="filter0_ddd_1127_377" x="-0.00964355" y="0" width="439.475" height="299.888" filterUnits="userSpaceOnUse" color-interpolation-filters="sRGB">
<feFlood flood-opacity="0" result="BackgroundImageFix"/>
<feColorMatrix in="SourceAlpha" type="matrix" values="0 0 0 0 0 0 0 0 0 0 0 0 0 0 0 0 0 0 127 0" result="hardAlpha"/>
<feOffset/>
<feGaussianBlur stdDeviation="0.5"/>
<feColorMatrix type="matrix" values="0 0 0 0 0 0 0 0 0 0 0 0 0 0 0 0 0 0 0.04 0"/>
<feBlend mode="normal" in2="BackgroundImageFix" result="effect1_dropShadow_1127_377"/>
<feColorMatrix in="SourceAlpha" type="matrix" values="0 0 0 0 0 0 0 0 0 0 0 0 0 0 0 0 0 0 127 0" result="hardAlpha"/>
<feOffset dy="2"/>
<feGaussianBlur stdDeviation="3"/>
<feColorMatrix type="matrix" values="0 0 0 0 0 0 0 0 0 0 0 0 0 0 0 0 0 0 0.04 0"/>
<feBlend mode="normal" in2="effect1_dropShadow_1127_377" result="effect2_dropShadow_1127_377"/>
<feColorMatrix in="SourceAlpha" type="matrix" values="0 0 0 0 0 0 0 0 0 0 0 0 0 0 0 0 0 0 127 0" result="hardAlpha"/>
<feOffset dy="16"/>
<feGaussianBlur stdDeviation="12"/>
<feColorMatrix type="matrix" values="0 0 0 0 0 0 0 0 0 0 0 0 0 0 0 0 0 0 0.06 0"/>
<feBlend mode="normal" in2="effect2_dropShadow_1127_377" result="effect3_dropShadow_1127_377"/>
<feBlend mode="normal" in="SourceGraphic" in2="effect3_dropShadow_1127_377" result="shape"/>
</filter>
<linearGradient id="paint0_linear_1127_377" x1="219.728" y1="8" x2="219.728" y2="259.888" gradientUnits="userSpaceOnUse">
<stop stop-color="#197BBD"/>
<stop offset="1" stop-color="#3391D0"/>
</linearGradient>
<linearGradient id="paint1_linear_1127_377" x1="219.728" y1="8" x2="219.728" y2="259.888" gradientUnits="userSpaceOnUse">
<stop stop-color="#197BBD"/>
<stop offset="1" stop-color="#3391D0"/>
</linearGradient>
</defs>
</svg>
